/* XPM */
static char *_b7ca7d4df724803a46d9f39fa4eecc7QMf8SNXRlTZ7nB4m[] = {
/* columns rows colors chars-per-pixel */
"64 64 116 2 ",
"   c #323232",
".  c #5A2D2F",
"X  c #4E3C3C",
"o  c #563B3E",
"O  c #632C2D",
"+  c #73332F",
"@  c #6E2C30",
"#  c #7B2F33",
"$  c #6E3534",
"%  c #753235",
"&  c #783437",
"*  c #733038",
"=  c #4D433E",
"-  c #56433C",
";  c gray25",
":  c #564640",
">  c gray34",
",  c #93151E",
"<  c #B8121C",
"1  c #A51E21",
"2  c #B41F22",
"3  c #832226",
"4  c #9F272C",
"5  c #A92C2E",
"6  c #CF040E",
"7  c #DE0C0C",
"8  c #CD0C10",
"9  c #D70913",
"0  c #C91710",
"q  c #E50706",
"w  c #ED0405",
"e  c #EC0903",
"r  c #E5070A",
"t  c #ED040B",
"y  c #E3090E",
"u  c #EF0B0D",
"i  c #F40204",
"p  c #F90103",
"a  c #F4030B",
"s  c #FA010A",
"d  c #F11E09",
"f  c #E60A10",
"g  c #EC0914",
"h  c #F30415",
"j  c #D43B0A",
"k  c #E22101",
"l  c #EC2206",
"z  c #EA2D09",
"x  c #F02403",
"c  c #EC3C04",
"v  c #EE3B0A",
"b  c #FE3D0B",
"n  c #C1262C",
"m  c #A14529",
"M  c #B4472B",
"N  c #DE4E05",
"B  c #D75804",
"V  c #DE5409",
"C  c #E74105",
"Z  c #ED4A03",
"A  c #F94506",
"S  c #F7470A",
"D  c #FA420E",
"F  c #F44808",
"G  c #E05505",
"H  c #F54711",
"J  c #FB4212",
"K  c #FE5E12",
"L  c #FE5C18",
"P  c #F76506",
"I  c #FA6707",
"U  c #F66A05",
"Y  c #FB6805",
"T  c #F5670B",
"R  c #FC650B",
"E  c #F56A0B",
"W  c #EE7A09",
"Q  c #F36314",
"!  c #FD6211",
"~  c #FE522C",
"^  c #EC8A02",
"/  c #F48B02",
"(  c #FA8B06",
")  c #FC8909",
"_  c #E99700",
"`  c #E79B01",
"'  c #EB9B01",
"]  c #F39102",
"[  c #FD8213",
"{  c #F7AC0C",
"}  c #F8AC0E",
"|  c #EDB104",
" . c #F0B006",
".. c #F7AE11",
"X. c #E9C80A",
"o. c #F7CC03",
"O. c #FACF01",
"+. c #F9CF0A",
"@. c #F4D103",
"#. c #F9D101",
"$. c #E7CC14",
"%. c #E3C51E",
"&. c #EFFB05",
"*. c #EDFD05",
"=. c #EDF20C",
"-. c #F4F606",
";. c #FEF506",
":. c #F5FA03",
">. c #F1FD00",
",. c #F7FC00",
"<. c #F4F60C",
"1. c #F8F00E",
"2. c #F7F908",
"3. c #F6F90E",
"4. c #FEEB11",
"5. c #F4FB11",
/* pixels */
"; ; ; ; ; ; ; ; ; ;                         ; ; ; ; ; ;                                           ; ; ; ; ; ; ; ; ; ; ; ; ; ; ; ",
"; ; ; ; ; ; ; ; ; ;                         ; ; ; ; ; ;                                           ; ; ; ; ; ; ; ; ; ; ; ; ; ; ; ",
"; ; ; ; ; ; ; ;                                                   > > > > > > > > > > > > > >         ; ; ; ; ; ; ; ; ; ; ; ; ; ",
"; ; ; ; ; ; ; ;                                                   > > > > > > > > > > > > > >         ; ; ; ; ; ; ; ; ; ; ; ; ; ",
"; ; ; ; ; ; ; ;         > > > > > > > > > >                 > > > ; ; ; ; ; ; ; ; ; ; ; ; ; ; > >         ; ; ; ; ; ; ; ; ; ; ; ",
"; ; ; ; ; ; ; ;         > > > > > > > > > >                 > > > ; ; ; ; ; ; ; ; ; ; ; ; ; ; > >         ; ; ; ; ; ; ; ; ; ; ; ",
"                    > > ; ; ; ; ; ; ; ; ; ; > > > >                           ; ; ; ; ; ; ; ; ; ; > >         ; ; ; ; ; ;       ",
"                    > > ; ; ; ; ; ; ; ; ; ; > > > >                           ; ; ; ; ; ; ; ; ; ; > >         ; ; ; ; ; ;       ",
"                                    ; ; ; ; ; ;                                   ; ; ; ; ; ; ; ; ; ;                           ",
"                                    ; ; ; ; ; ;                                   ; ; ; ; ; ; ; ; ; ;                           ",
"> > > > > >                             ; ;             > > > > > > > > >             ; ; ; ; ; ; ; ;                         > ",
"> > > > > >                             ; ;             > > > > > > > > >             ; ; ; ; ; ; ; ;                         > ",
"; ; ; ;                 > > > >                 > > > > ; ; ; ; ; ; ; ; ; > >                             > > > > > > > > > > ; ",
"; ; ; ;                 > > > >                 > > > > ; ; ; ; ; ; ; ; ; > >                             > > > > > > > > > > ; ",
"; ;             > > > > ; ; ; ; > >         > > ; ; ; ; ; ; ; ; ; ; ; ; ; ; ; > >                                 ; ; ; ; ; ; ; ",
"; ;             > > > > ; ; ; ; > >         > > ; , 0 3 ; ; ; ; ; ; ; ; ; ; ; > >                                 ; ; ; ; ; ; ; ",
"            > > ; ; ; ; ; ; ; ; ; ; > >         ; f t 1 ; ; ; ; ; ; ; ; ; ; ; ; ;     > > > > > > > > > > > >         ; ; ; ; ; ",
"            > > ; ; ; ; ; ; ; ; ; ; > >         ; 5 n 4 $ $ $ & ; ; ; ; ; ; ; ; ;     > > > > > > > > > > > >         ; ; ; ; ; ",
"        > > ; ; ; ; ; ; ; ; ; ; ; ; ; ; > >           @ a i i i ; ; ; ; ; ; ; ; ;     > > ; ; ; ; ; ; ; ; ; ; > >         ; ; ; ",
"        > > ; ; ; ; ; ; ; ; ; ; ; ; ; ; > >           . 9 8 e e X o ; ; = - : ; ;     > > ; ; ; ; ; ; ; ; ; ; > >         ; ; ; ",
"> >     > > ; ; ; ; ; ; ; ; ; ; ; ; ; ; ; ;                 H D w w ; ; m b c ; ;         > > ; ; ; ; ; ; ; ; ; ; > >           ",
"> >     > > ; ; ; ; ; ; ; ; ; ; ; ; ; ; ; ;                 J H i e ; ; M v j ; ;         > > ; ; ; ; ; ; ; ; ; ; > >           ",
"> >         ; ; ; ; ; ; ; ; ; ; ; ; ; ; ; ;     > > > >     w a S F   ; ; ; ; ; ;         > > ; ; ; ; ; ; ; ; ; ; ; ;           ",
"> >         ; ; ; ; ; ; ; ; ; ; ; ; ; ; ; ;     > > > >     w i F Z   ; ; ; ; ; ;         > > ; ; ; ; ; ; ; ; ; ; ; ;           ",
"> >             ; ; ; ; ; ; ; ; ; ; ; ; ; ;     ; ; ; ; > > w i F V a i i i 7 ; ;     > >         ; ; ; ; ; ; ; ;         > > ; ",
"> >             ; ; ; ; ; ; ; ; ; ; ; ; ; ;     ; ; ; ; > > a i S A a t s p t ; ;     > >         ; ; ; ; ; ; ; ;         > > ; ",
"> >     > >     ; ; ; ; ; ; ; ; ; ; ; ; ; ;     ; ; ; $ a a p i T I P ! d p q         > >         ; ; ; ; ; ; ; ;     > > ; ; ; ",
"> >     > >     ; ; ; ; ; ; ; ; ; ; ; ; ; ;     ; ; ; + s a w s I R I T l p t         > >         ; ; ; ; ; ; ; ;     > > ; ; ; ",
"        ; ;     ; ; ; ; ; ; ; ; ; ; ; ;         ; ; ; # p w D D U U U P d i p t e > > ; ; > >     ; ; ; ; ; ; ; ;     ; ; ; ; ; ",
"        ; ;     ; ; ; ; ; ; ; ; ; ; ; ;         ; ; ; * p a J A T I I I l s p a t > > ; ; > >     ; ; ; ; ; ; ; ;     ; ; ; ; ; ",
"        ; ;             ; ; ; ; ; ; ; ;         ; 6 t t p i ! R E I I I L L ~ p t ; ; ; ; ; ;     ; ; ; ; ; ;             ; ; ; ",
"        ; ;             ; ; ; ; ; ; ; ;         ; h s s a t T R R R R R I R ! p i ; ; ; ; ; ;     ; ; ; ; ; ;             ; ; ; ",
"    > > ; ; ; ;                             ; 2 < s p l Q Q ..} } { { } W U R p i ; ; ; ; ; ;         ; ;             ; ; ; ; > ",
"    > > ; ; ; ;                             ; r i a s z ] ] +.#.#.#.#.#.^ Y K p i ; ; ; ; ; ;         ; ;             ; ; ; ; > ",
"    ; ; ; ; ; ; > > > >                     ; i i x k C / / o.#.#.O.O.#./ R K p p ; ; ; ; ; ;                             ; ; > ",
"    ; ; ; ; ; ; > > > >                     ; p p [ ) ( / / o.#.#.#.O.O./ R K p i ; ; ; ; ; ;                             ; ; > ",
"    ; ; ; ; ; ; ; ; ; ; > >     ; ; ; ; ; ; ; i p [ / / _ ` @.#.%.$.@.@.^ E K p i ; ; ; ; ; ;             ; ;                   ",
"    ;   ; ; ; ; ; ; ; ; > >     ; ; ; ; ; ; ; i p [ ) | ,.2.O.#.    5.:.` E K p i ; ; ; ; ; ;             ; ;                   ",
"        ; ; ; ; ; ; ; ; ; ;         ; ; ; ; ; i p [ /  .>.;.+.X.    3.:.' E K p i ; ; ; ;         > >         > > > > > >       ",
"        ; ; ; ; ; ; ; ; ; ;         ; ; ; ; ; i s p h G *.1.        ;.<.V a u ; ; ; ; ; ;         > >         > > > > > >       ",
"> >     ; ; ; ; ; ; ; ; ; ;                   a a i s B -.=.      > 4.&.N w y                     ; ; > >     ; ; ; ; ; ; > >   ",
"> >     ; ; ; ; ; ; ; ; ; ;                       w p p a w       > u a % ; ;                     ; ; > >     ; ; ; ; ; ; > >   ",
"> >         ; ; ; ; ; ; ; ; ; ;                 > g i i w g         g i O                 > > > > ; ; ; ;     ; ; ; ; ; ; ; ; > ",
"> >         ; ; ; ; ; ; ; ; ; ;                 > > > > > >                               > > > > ; ; ; ;     ; ; ; ; ; ; ; ; > ",
"; ; > >             ; ; ; ;         > > > > > > ; ; ; ; > >                       > > > > ; ; ; ; ; ; ; ;     ; ; ; ; ; ; ; ; ; ",
"; ; > >             ; ; ; ;         > > > > > > ; ; ; ; > >                       > > > > ; ; ; ; ; ; ; ;     ; ; ; ; ; ; ; ; ; ",
"; ; ; ; > >                         ; ; ; ; ; ; ; ; ; ; ; ; > > > > > > > > >     > > ; ; ; ; ; ; ; ; ; ;             ; ; ; ; ; ",
"; ; ; ; > >                         ; ; ; ; ; ; ; ; ; ; ; ; > > > > > > > > >     > > ; ; ; ; ; ; ; ; ; ;             ; ; ; ; ; ",
"; ; ; ; ; ; > >             > >         ; ; ; ; ; ; ; ; ; ; ; ; ; ; ; ; ;         ; ; ; ; ; ; ; ; ; ;         > > > >     ; ; ; ",
"; ; ; ; ; ; > >             > >         ; ; ; ; ; ; ; ; ; ; ; ; ; ; ; ; ;         ; ; ; ; ; ; ; ; ; ;         > > > >     ; ; ; ",
"; ; ; ; ; ;     > > > > > > ; ; > >             ; ; ; ; ; ; ; ; ; ; ;             ; ; ; ; ; ; ; ;             > > ; ; > >     ; ",
"; ; ; ; ; ;     > > > > > > ; ; > >             ; ; ; ; ; ; ; ; ; ; ;             ; ; ; ; ; ; ; ;             > > ; ; > >     ; ",
"; ; ;   ; ;     ; ; ; ; ; ; ; ; ; ; ; ;                                       ; ; ; ; ; ; ; ;             > > ; ; ; ; ; ; > >   ",
"; ; ; ; ; ;     ; ; ; ; ; ; ; ; ; ; ; ;                                       ; ; ; ; ; ; ; ;             > > ; ; ; ; ; ; > >   ",
"                        ; ; ; ; ; ; ; ; ; ;                               ; ; ; ; ; ; ; ;             > > ; ; ; ; ; ;         > ",
"                        ; ; ; ; ; ; ; ; ; ;                               ; ; ; ; ; ; ; ;             > > ; ; ; ; ; ;         > ",
"> > > > > > > >                 ; ; ; ;                     > > >                                 > > ; ; ; ; ; ;         > > ; ",
"> > > > > > > >                 ; ; ; ;                     > > >                                 > > ; ; ; ; ; ;         > > ; ",
"; ; ; ; ; ; ; ; > >                                     > > ; ; ; > >                         > > ; ; ; ; ; ;         > > ; ; ; ",
"; ; ; ; ; ; ; ; > >                                     > > ; ; ; > >                         > > ; ; ; ; ; ;         > > ; ; ; ",
"; ; ; ; ; ; ; ; ; ; > > > >                 ; ; ; ;     ; ; ; ; ; ; ; ; ;         ; ; ; ; ; ; ; ; ; ; ; ;         > > ; ; ; ; ; ",
"; ; ; ; ; ; ; ; ; ; > > > >                 ; ; ; ;     ; ; ; ; ; ; ; ; ;         ; ; ; ; ; ; ; ; ; ; ; ;         > > ; ; ; ; ; ",
"; ; ; ; ; ;     ; ; ; ; ; ; ; ; ; ; ; ; ; ; ; ; ; ;     ; ; ; ; ; ; ; ; ; ; ;         ; ; ; ; ; ; ; ; ; ;     ; ; ; ; ; ; ; ; ; ",
"; ; ; ; ; ;     ; ; ; ; ; ; ; ; ; ; ; ; ; ; ; ; ; ;     ; ; ; ; ; ; ; ; ; ; ;         ; ; ; ; ; ; ; ; ; ;     ; ; ; ; ; ; ; ; ; "
};
