/* XPM */
static char *_494efad35ff447fb7593d89a52aa2b8vlw1EidLr8Edkjy3[] = {
/* columns rows colors chars-per-pixel */
"64 64 17 1 ",
"  c #16051F",
". c #140820",
"X c #2A1E3F",
"o c #313131",
"O c #353535",
"+ c #353B4B",
"@ c gray25",
"# c gray34",
"$ c #F77A23",
"% c #9F4055",
"& c #FEB246",
"* c #FEB74A",
"= c #615494",
"- c #777C93",
"; c #AAA7C4",
": c #C1BDC6",
"> c #FFFEE7",
/* pixels */
"@@@@@@@@@@OOooOOOOOOOO@@@@@@OOoooooooooooooooooOO@@@@@@@@@@@@@@@",
"@@@@@@@@@@OOooOOOOOOOO@@@@@@;;;;;;;ooooooooooooOO@@@@@@@@@@@@@@@",
"@@@@@@@@OOooooooooooooOO;;;;>>>;>>>;;;;########ooOO@@@@@@@@@@@@@",
"@@@@@@@@OOooooooooooooO;>>>>>>>;>>>>>>>;#######ooOO@@@@@@@@@@@@@",
"@@@@@@@@OOoo##########;>>>>>>>>;>>>>>>>>;@@@@@@##ooOO@@@@@@@@@@@",
"@@@@@@@@OOoo#########;>>>>>>>>>;>>>>>>>>>;@@@@@##ooOO@@@@@@@@@@@",
"OOOOOOOOoo##@@@@@@@@;>>>>>   >>;>>   >>>>>;@@@@@@##ooOO@@@@@@OOO",
"OOOOOOOOoo##@@@@@@@;>>>>... .>>;>>. ...>>>>;@@@@@##ooOO@@@@@@OOO",
"ooooooooooOOOOOOOO;>>>.......>>;>>.......>>>;@@@@@@ooOOOOOOOOooo",
"ooooooooooOOOOOOO;>>>........>>;>>........>>>;@@@@@ooOOOOOOOOooo",
"######OOoooooooo;>>>>........>>;>>........>>>>;@@@@oooooooooooo#",
"######OOoooooooo;>>>>>>>>>>>>>>;>>>>>>>>>>>>>>;@@@@oooooooooooo#",
"@@@@OOoooooo####;>>>>>>>>>>>>>>;>>>>>>>>>>>>>>;OOOOoo##########@",
"@@@@OOoooooo####;>>>>>>>>>>>>>>;>>>>>>>>>>>>>>;OOOOoo##########@",
"@@OOoooo####@@@@=;;;;;;;;;;;;;;=;;;;;;;;;;;;;;=ooooooooOO@@@@@@@",
"@@OOoooo####@@@=;>>>>>>>>>>>>>>>>>>>>>>>>>>>>>;=oooooooOO@@@@@@@",
"OOoooo##@@@@@@@=;>>;;;;;;;;;;;;;;;;;;;;;;;;;>>;=#######ooOO@@@@@",
"OOoooo##@@@@@@@=;>>;+++++++++++++++++++++++;>>;=#######ooOO@@@@@",
"oooo##@@@@@@@@@=;>>;.                      ;>>;=@@@@@@@##ooOO@@@",
"oooo##@@@@@@@@@=;>>; X+++++++++++++++++++X ;>>;=@@@@@@@##ooOO@@@",
"##oo##@@@@@@@@@=;>>; X++++++++++++++++++++ ;>>;=@@@@@@@@@##ooOOO",
"##oo##@@@@@@@@@=;>>; X+++....+++++....++++ ;>>;=@@@@@@@@@##ooOOO",
"##oooo@@@@@@@@@=;>>;.X++.--->>>>>>>---.-++ ;>>;=@@@@@@@@@@@ooooo",
"##oooo@@@@@@@@@=;>>;.X++.++>>>>>  .>++.-++ ;>>;=@@@@@@@@@@@ooooo",
"##OOoooo@@@@@@@=;>>;.X++.+>>>>>   ..>+ -++ ;>>;=O@@@@@@@@oooo##@",
"##OOoooo@@@@@@@=;>>;.X++.>>>>>   >> >>.-++ ;>>;=O@@@@@@@@oooo##@",
"##oo##oo@@@@@@@=;>>;.X++.>>>>>    >>>>.-++ ;>>;=o@@@@@@@@oo##@@@",
"##oo##oo@@@@@@@=;>>;.X++.>>>>  >  >>>> -++ ;>>;=o@@@@@@@@oo##@@@",
"OOoo@@oo@@@@@@@=;>>;.X++.>>>  $$$ .>>>.-++ ;>>;=o@@@@@@@@oo@@@@@",
"OOoo@@oo@@@@@@@=;>>;.X++.> ..........>.-++ ;>>;=o@@@@@@@@oo@@@@@",
"oooo@@ooOOOO@@@=;>>;.X++.>.%%&&&&&$% >.-++ ;>>;=o@@@@@@OOooOO@@@",
"oooo@@ooOOOO@@@=;>>;.X++.>>$& &&&.&$>>.-++ ;>>;=o@@@@@@OOooOO@@@",
"oo##@@@@ooooOOO=;>>;.X++.>>$&&&.&&&$>>.-++ ;>>;=oOO@@OOooOO@@@@#",
"oo##@@@@ooooOOO=;>>;.X++.->$.****&.$>+ -++ ;>>;=oOO@@OOooOO@@@@#",
"oo@@@@@@####ooo=;>>;.X++.-+$* ....&$++ -++ ;>>;=oooOOooOOOOOO@@#",
"oo@@@@@@####ooo=;>>;.X++.-+ %*****%X++ -++ ;>>;=oooOOooOOOOOO@@#",
"oo@@@@@@@@@@##o=;>>;.X>>.-++ $$$$$X+++ -++ ;>>;=ooooo@@ooooooOOO",
"oo@@@@@@@@@@##o=;>>;.+$$ -+++.-++ -+++ -++ ;>>;=ooooo@@ooooooOOO",
"oooo@@@@@@@@@@o=;>>;.+XX.-+++.-++ -+++ -++ ;>>;=o##oooo######ooo",
"oooo@@@@@@@@@@o=;>>;.++++     -+++     -++ ;>>;=o##oooo######ooo",
"##oo@@@@@@@@@@o=;>>;.+>>+-----++++-----+++ ;>>;=o@@##oo@@@@@@##o",
"##oo@@@@@@@@@@o=;>>;.+&&++++++++++++++++++ ;>>;=o@@##oo@@@@@@##o",
"##ooOO@@@@@@@@@=;>>;.+&$++++++++++++++++++ ;>>;=#@@@@oo@@@@@@@@#",
"##ooOO@@@@@@@@@=;>>;.+&$++++++++++++++++++ ;>>;=#@@@@oo@@@@@@@@#",
"@@##ooOOOO@@@@O=;>>;.+&$+    +++++    ++++ ;>>;=@@@@@oo@@@@@@@@@",
"@@##ooOOOO@@@@O=;>>; +&$ ---- -++ ---- -++ ;>>;=@@@@@oo@@@@@@@@@",
"@@@@##ooooOOOOo=;>>; +$$ -+++ -++ -+++ -++ ;>>;=@@@@@oooooo@@@@@",
"@@@@##ooooOOOOo=;>>;.+XX -+++ -++ -+++ -++ ;>>;=@@@@@oooooo@@@@@",
"@@@@@@##oooooo#=;>>;.X++.-+++ -++ -+++ -++ ;>>;=@@@OOoo####oo@@@",
"@@@@@@##oooooo#=;>>;.X++ -+++ -++ -+++ -++ ;>>;=@@@OOoo####oo@@@",
"@@@@@@oo######@=;>>;.X++ -+++ -++ -+++ -++ ;>>;=@OOoooo##@@##oo@",
"@@@@@@oo######@=;>>;.X++ -+++ -++ -+++ -++ ;>>;=@OOoooo##@@##oo@",
"@@@@@@oo@@@@@@@=;>>;.X++ -+++ -++ -+++ -++ ;>>;=Ooooo##@@@@@@##o",
"@@@@@@oo@@@@@@@=;>>;.X++ -+++ -++ -+++ -++ ;>>;=Ooooo##@@@@@@##o",
"ooooooooooOO@@@=;>>;.X++ -+++ -++ -+++ -++ ;>>;=ooo##@@@@@@OOoo#",
"ooooooooooOO@@@=;>>; X+++     -+++     -++ ;>>;=ooo##@@@@@@OOoo#",
"########ooooOOO=;>>; X+++-----++++-----+++ ;>>;=o##@@@@@@OOoo##@",
"########ooooOOO=;>>; X++++++++++++++++++++ ;>>;=o##@@@@@@OOoo##@",
"@@@@@@@@##ooooo=;>>; X++++++++++++++++++++ ;>>;=#@@@@@@OOoo##@@@",
"@@@@@@@@##ooooo=-::- X++++++++++++++++++++ -::-=#@@@@@@OOoo##@@@",
"@@@@@@@@@@####o==;;= XXXXXXXXXXXXXXXXXXXXX =;;==@@@@@OOoo##@@@@@",
"@@@@@@@@@@###                                   ..@@@OOoo##@@@@@",
"@@@@@@oo@@@@@@@@@@@@@@@@@@oo@@@@@@@@@@@oooo@@@@@@@@@@oo@@@@@@@@@",
"@@@@@@oo@@@@@@@@@@@@@@@@@@oo@@@@@@@@@@@oooo@@@@@@@@@@oo@@@@@@@@@"
};
