/* XPM */
static char *_c77a82eb8064667b21b95e9c66cc290aLFFdaR4KZOoONeV[] = {
/* columns rows colors chars-per-pixel */
"64 64 4 1 ",
"  c #313131",
". c #353535",
"X c gray25",
"o c gray34",
/* pixels */
"XXXXXXXXXX..  ........XXXXXX..                 ..XXXXXXXXXXXXXXX",
"XXXXXXXXXX..  ........XXXXXX..                 ..XXXXXXXXXXXXXXX",
"XXXXXXXX..            ......     oooooooooooooo  ..XXXXXXXXXXXXX",
"XXXXXXXX..            ......     oooooooooooooo  ..XXXXXXXXXXXXX",
"XXXXXXXX..  oooooooooo        oooXXXXXXXXXXXXXXoo  ..XXXXXXXXXXX",
"XXXXXXXX..  oooooooooo        oooXXXXXXXXXXXXXXoo  ..XXXXXXXXXXX",
"........  ooXXXXXXXXXXoooo..  .........XXXXXXXXXXoo  ..XXXXXX...",
"........  ooXXXXXXXXXXoooo..  .........XXXXXXXXXXoo  ..XXXXXX...",
"          ........XXXXXX..             ..XXXXXXXXXX  ........   ",
"          ........XXXXXX..             ..XXXXXXXXXX  ........   ",
"oooooo..          ..XX..    ooooooooo    ..XXXXXXXX            o",
"oooooo..          ..XX..    ooooooooo    ..XXXXXXXX            o",
"XXXX..      oooo    ..  ooooXXXXXXXXXoo    ........  ooooooooooX",
"XXXX..      oooo    ..  ooooXXXXXXXXXoo    ........  ooooooooooX",
"XX..    ooooXXXXoo    ooXXXXXXXXXXXXXXXoo              ..XXXXXXX",
"XX..    ooooXXXXoo    ooXXXXXXXXXXXXXXXoo              ..XXXXXXX",
"..    ooXXXXXXXXXXoo    XXXXXXXXXXXXXXXXX  oooooooooooo  ..XXXXX",
"..    ooXXXXXXXXXXoo    XXXXXXXXXXXXXXXXX  oooooooooooo  ..XXXXX",
"    ooXXXXXXXXXXXXXXoo  ......XXXXXXXXXXX  ooXXXXXXXXXXoo  ..XXX",
"    ooXXXXXXXXXXXXXXoo  ......XXXXXXXXXXX  ooXXXXXXXXXXoo  ..XXX",
"oo  ooXXXXXXXXXXXXXXXX        ...XXXXXXXX    ooXXXXXXXXXXoo  ...",
"oo  ooXXXXXXXXXXXXXXXX        ...XXXXXXXX    ooXXXXXXXXXXoo  ...",
"oo    XXXXXXXXXXXXXXXX  oooo     ..XXXXXX    ooXXXXXXXXXXXX     ",
"oo    XXXXXXXXXXXXXXXX  oooo     ..XXXXXX    ooXXXXXXXXXXXX     ",
"oo..    XXXXXXXXXXXXXX  XXXXooooo  ..XXXX  oo  ..XXXXXXXX    ooX",
"oo..    XXXXXXXXXXXXXX  XXXXooooo  ..XXXX  oo  ..XXXXXXXX    ooX",
"oo  oo  XXXXXXXXXXXXXX  XXXXXXooo    ....  oo    XXXXXXXX  ooXXX",
"oo  oo  XXXXXXXXXXXXXX  XXXXXXooo    ....  oo    XXXXXXXX  ooXXX",
"..  XX  XXXXXXXXXXXX..  XXXXXXXXXoo      ooXXoo  XXXXXXXX  XXXXX",
"..  XX  XXXXXXXXXXXX..  XXXXXXXXXoo      ooXXoo  XXXXXXXX  XXXXX",
"    XX  ....XXXXXXXX    XXXXXXXXXXX    ooXXXXXX  XXXXXX..  ..XXX",
"    XX  ....XXXXXXXX    XXXXXXXXXXX    ooXXXXXX  XXXXXX..  ..XXX",
"  ooXXXX    ........  XXXXXXXXXXXXX  ooXXXXXXXX  ..XX..  ..XXXXo",
"  ooXXXX    ........  XXXXXXXXXXXXX  ooXXXXXXXX  ..XX..  ..XXXXo",
"  XXXXXXoooo          XXXXXXXXXXX..  ooXXXXXXXX    ..  ......XXo",
"  XXXXXXoooo          XXXXXXXXXXX..  ooXXXXXXXX    ..  ......XXo",
"  XXXXXXXXXXoo  XXXXXXXXXXXXXX...    ooXXXXXXXX      XX      ...",
"  XXXXXXXXXXoo  XXXXXXXXXXXXXX...    ooXXXXXXXX      XX      ...",
"    XXXXXXXXXX  ..XXXXXX......     ooXXXXXXXX..  oo    oooooo   ",
"    XXXXXXXXXX  ..XXXXXX......     ooXXXXXXXX..  oo    oooooo   ",
"oo  XXXXXXXXXX    ......         ooXXXX......    XXoo  XXXXXXoo ",
"oo  XXXXXXXXXX    ......         ooXXXX......    XXoo  XXXXXXoo ",
"oo  ..XXXXXXXXXX..      oooooo   ......      ooooXXXX  XXXXXXXXo",
"oo  ..XXXXXXXXXX..      oooooo   ......      ooooXXXX  XXXXXXXXo",
"XXoo  ....XXXX..  ooooooXXXXoo           ooooXXXXXXXX  XXXXXXXXX",
"XXoo  ....XXXX..  ooooooXXXXoo           ooooXXXXXXXX  XXXXXXXXX",
"XXXXoo    ....    XXXXXXXXXXXXooooooooo  ooXXXXXXXXXX      XXXXX",
"XXXXoo    ....    XXXXXXXXXXXXooooooooo  ooXXXXXXXXXX      XXXXX",
"XXXXXXoo      oo    XXXXXXXXXXXXXXXXX..  XXXXXXXXXX..  oooo  XXX",
"XXXXXXoo      oo    XXXXXXXXXXXXXXXXX..  XXXXXXXXXX..  oooo  XXX",
"XXXXXX  ooooooXXoo  ....XXXXXXXXXXX..    XXXXXXXX..    ooXXoo  X",
"XXXXXX  ooooooXXoo  ....XXXXXXXXXXX..    XXXXXXXX..    ooXXoo  X",
"XXXXXX  XXXXXXXXXXXX    ...........    XXXXXXXX..    ooXXXXXXoo ",
"XXXXXX  XXXXXXXXXXXX    ...........    XXXXXXXX..    ooXXXXXXoo ",
"          ..XXXXXXXXXX               XXXXXXXX..    ooXXXXXX..  o",
"          ..XXXXXXXXXX               XXXXXXXX..    ooXXXXXX..  o",
"oooooooo    ....XXXX....      ooo    ........    ooXXXXXX..  ooX",
"oooooooo    ....XXXX....      ooo    ........    ooXXXXXX..  ooX",
"XXXXXXXXoo      ....        ooXXXoo            ooXXXXXX..  ooXXX",
"XXXXXXXXoo      ....        ooXXXoo            ooXXXXXX..  ooXXX",
"XXXXXXXXXXoooo        XXXX  XXXXXXXXX    XXXXXXXXXXXX..  ooXXXXX",
"XXXXXXXXXXoooo        XXXX  XXXXXXXXX    XXXXXXXXXXXX..  ooXXXXX",
"XXXXXX  XXXXXXXXXXXXXXXXXX  XXXXXXXXXXX    XXXXXXXXXX  XXXXXXXXX",
"XXXXXX  XXXXXXXXXXXXXXXXXX  XXXXXXXXXXX    XXXXXXXXXX  XXXXXXXXX"
};
