/* XPM */
static char *_90d58b9c7424322bd11f631684dcb9fWOLSdkKp0KxSgw4S[] = {
/* columns rows colors chars-per-pixel */
"64 64 173 2 ",
"   c black",
".  c #0A0302",
"X  c #0B0905",
"o  c #0D0D08",
"O  c #100303",
"+  c #2D070F",
"@  c #35030C",
"#  c #38040B",
"$  c #2F0911",
"%  c #3C0512",
"&  c #320B13",
"*  c #2D1015",
"=  c #37131A",
"-  c #3A121B",
";  c #3E1E25",
":  c #39272B",
">  c #332A2A",
",  c #38292A",
"<  c #323232",
"1  c #3A3535",
"2  c #3E3E3E",
"3  c #49060E",
"4  c #400710",
"5  c #480610",
"6  c #420914",
"7  c #4A0B16",
"8  c #490B1A",
"9  c #540611",
"0  c #5B0512",
"q  c #510B16",
"w  c #59001C",
"e  c #530E19",
"r  c #5D0F1B",
"t  c #421113",
"y  c #54141C",
"u  c #59121D",
"i  c #650916",
"p  c #6E0E1C",
"a  c #490E20",
"s  c #4C1727",
"d  c #461B24",
"f  c #481B26",
"g  c #4C1F2A",
"h  c #531422",
"j  c #5A1624",
"k  c #531825",
"l  c #5E1B25",
"z  c #561C28",
"x  c #5D1C2A",
"c  c #640D20",
"v  c #6A1525",
"b  c #621925",
"n  c #681A25",
"m  c #631528",
"M  c #6C1529",
"N  c #641C29",
"B  c #6B1B2B",
"V  c #731424",
"C  c #7B1222",
"Z  c #731927",
"A  c #76162A",
"S  c #7B162C",
"D  c #731D2D",
"F  c #7A1B2D",
"G  c #651733",
"H  c #7C1C31",
"J  c #42282C",
"K  c #4E282F",
"L  c #492D32",
"P  c #532A34",
"I  c #5A2C37",
"U  c #5B2F39",
"Y  c #433132",
"T  c #4A3134",
"R  c #433C3D",
"E  c #4D3A3D",
"W  c #5C3336",
"Q  c #5A343B",
"!  c #6B212D",
"~  c #73232E",
"^  c #7B212F",
"/  c #622731",
"(  c #6C2131",
")  c #632E3F",
"_  c #742731",
"`  c #7B2533",
"'  c #7D2836",
"]  c #7A253A",
"[  c #653439",
"{  c #413E41",
"}  c #4F3F44",
"|  c #503A42",
" . c #552555",
".. c #6F3B43",
"X. c #713E40",
"o. c #632755",
"O. c #404040",
"+. c #4E4547",
"@. c #4E4E4E",
"#. c #514747",
"$. c #5D4342",
"%. c #544E4E",
"&. c #575757",
"*. c #5D5454",
"=. c #5B5959",
"-. c #634343",
";. c #62474A",
":. c #6E4448",
">. c #684A4C",
",. c #7C4245",
"<. c #6D4F56",
"1. c #734D53",
"2. c #615656",
"3. c #6B5252",
"4. c #6C545B",
"5. c #7A5353",
"6. c #715558",
"7. c #7D5961",
"8. c #616163",
"9. c #6C6B6D",
"0. c #7B6C6D",
"q. c #717070",
"w. c #7F7C7C",
"e. c #861627",
"r. c #8F1325",
"t. c #83162D",
"y. c #841A2E",
"u. c #8C1A2D",
"i. c #96132A",
"p. c #9D172D",
"a. c #931C2E",
"s. c #9B1C2E",
"d. c #851D31",
"f. c #8B1D34",
"g. c #9D1632",
"h. c #941D32",
"j. c #9C1D34",
"k. c #931F39",
"l. c #A5152E",
"z. c #A31A34",
"x. c #AB1A35",
"c. c #A21A38",
"v. c #80212F",
"b. c #90202F",
"n. c #832433",
"m. c #8A2333",
"M. c #802936",
"N. c #8A2A37",
"B. c #932134",
"V. c #9B2234",
"C. c #932139",
"Z. c #9D213A",
"A. c #932939",
"S. c #A32135",
"D. c #A12039",
"F. c #825354",
"G. c #855660",
"H. c #847770",
"J. c #85787D",
"K. c #8C7D7D",
"L. c #9A7C84",
"P. c #938182",
"I. c #98858A",
"U. c #9B9396",
"Y. c #9B9B9C",
"T. c #A28991",
"R. c #A19295",
"E. c #AC989B",
"W. c #B89090",
"Q. c #BA9999",
"!. c #BCA5A9",
"~. c #B4B4B4",
"^. c #E4B9C2",
/* pixels */
"O.O.O.O.O.O.O.O.O.O.1 1 < < 1 1 1 1 1 1 1 1 O.O.O.O.O.O.1 1 < < < < < < < < < < < < < < < < < 1 1 O.O.O.O.O.O.O.O.O.O.O.O.O.O.O.",
"O.O.O.O.O.O.O.O.O.O.1 1 < < 1 1 1 1 1 1 1 1 O.O.O.O.O.O.1 1 < < < < < < < < < < < < < < < < < 1 1 O.O.O.O.O.O.O.O.O.O.O.O.O.O.O.",
"O.O.O.O.O.O.O.O.1 1 < < < < < < < < < < < < 1 1 1 1 1 1 < < < < < &.&.&.&.&.&.&.&.&.&.&.&.&.&.< < 1 1 O.O.O.O.O.O.O.O.O.O.O.O.O.",
"O.O.O.O.O.O.O.O.1 1 < < < < < < < < < < < < 1 1 1 1 1 1 < < < < < &.&.&.&.&.&.&.&.&.&.&.&.&.&.< < 1 1 O.O.O.O.O.O.O.O.O.O.O.O.O.",
"O.O.O.O.O.O.O.O.1 1 < < &.&.&.&.&.&.&.&.&.&.< < < < < < < < &.&.&.O.O.O.O.O.O.O.O.O.O.O.O.O.O.&.&.< < 1 1 O.O.O.O.O.O.O.O.O.O.O.",
"O.O.O.O.O.O.O.O.1 1 < < &.&.&.&.&.&.&.&.&.&.< < < < < < < < &.&.&.O.O.O.O.O.O.O.O.O.O.O.O.O.O.&.&.< < 1 1 O.O.O.O.O.O.O.O.O.O.O.",
"1 1 1 1 1 1 1 1 < < &.&.O.O.O.O.O.O.O.O.O.O.&.&.&.&.1 1 < < 1 1 1 1 1 1 1 1 1 O.O.O.O.O.O.O.O.O.O.&.&.< < 1 1 O.O.O.O.O.O.1 1 1 ",
"1 1 1 1 1 1 1 1 < < &.&.O.O.O.O.O.O.O.O.O.O.&.&.&.&.1 1 < < 1 1 1 1 1 1 1 1 1 O.O.O.O.O.O.O.O.O.O.&.&.< < 1 1 O.O.O.O.O.O.1 1 1 ",
"< < < < < < < < < < 1 1 1 1 1 1 1 1 O.O.O.O.O.O.1 1 < < < < < < < < < < < < < 1 1 O.O.O.O.O.O.O.O.O.O.< < 1 1 1 1 1 1 1 1 < < < ",
"< < < < < < < < < < 1 1 1 1 1 1 1 1 O.O.O.O.O.O.1 1 < < < < < < < < < < < < < 1 1 O.O.O.O.O.O.O.O.O.O.< < 1 1 1 1 1 1 1 1 < < < ",
"&.&.&.&.&.&.1 1 < < < < < < < < < < 1 1 O.O.1 1 < < < < &.&.&.&.&.&.&.&.&.< < < < 1 1 O.O.O.O.O.O.O.O.< < < < < < < < < < < < &.",
"&.&.&.&.&.&.1 1 < < < < < < < < < < 1 1 O.O.1 1 < < < < &.&.&.&.&.&.&.&.&.< < < < 1 1 O.O.O.O.O.O.O.O.< < < < < < < < < < < < &.",
"O.O.O.O.1 1 < < < < < < &.&.&.&.< < < < 1 1 < < &.&.&.&.2 O.O.O.O.O.O.O.O.&.&.< < < < 1 1 1 1 1 1 1 1 < < &.&.&.&.&.&.&.&.&.&.O.",
"O.O.O.O.1 1 < < < < < < &.&.&.&.< < < < 1 1 < < &.&.&.&.2 O.O.O.O.O.O.O.O.&.&.< < < < 1 1 1 1 1 1 1 1 < < &.&.&.&.&.&.&.&.&.&.O.",
"O.O.1 1 < < < < &.&.&.&.O.O.O.O.&.&.< < < < &.&.O.O.O.O.O.O.O.O.O.O.O.O.O.O.O.&.&.< < < < < < < < < < < < < < 1 < O.O.O.O.O.O.O.",
"O.O.1 1 < < < < &.&.&.&.O.O.O.O.&.&.< < < < &.&.O.O.O.O.O.O.O.O.O.O.O.O.O.O.O.&.&.< < < < < < < < < < < < < < 1 1 O.O.O.O.O.O.O.",
"1 1 < < < < &.&.O.O.O.O.O.O.O.O.O.O.&.&.< < < < O.{ R R L w w w w { 2 O.O.O.O.O.O.< < &.&.&.&.&.&.&.&.&.&.&.&.< < 1 1 O.O.O.O.O.",
"1 1 < < < < &.&.O.O.O.O.O.O.O.O.O.O.&.&.< < < < O.P w w w w ' o.) w w R O.O.O.O.O.< < &.&.&.&.&.&.&.&.&.&.&.&.< < 1 1 O.O.O.O.O.",
"< < < < &.&.O.O.O.O.O.O.O.O.O.O.O.O.O.O.&.&.< 1 U w w ] ] ] m h a s w w w R O.O.O.< < &.&.O.O.O.O.O.O.O.O.O.O.&.&.< < 1 1 O.O.O.",
"< < < < &.&.O.O.O.O.O.O.O.O.O.O.O.O.O.O.&.&.< Q u w ' ] ( j %       * ; w w O.O.O.< < &.&.O.O.O.O.O.O.O.O.O.O.&.&.< < 1 1 O.O.O.",
"&.&.< < &.&.O.O.O.O.O.O.O.O.O.O.O.O.O.O.O.O.E G w ` M.! y %             = w w O.O.< < < < &.&.O.O.O.O.O.O.O.O.O.O.&.&.< < 1 1 1 ",
"&.&.< < &.&.O.O.O.O.O.O.O.O.O.O.O.O.O.O.O.O.:.w w n.` b 4               $ f w R O.< < < < &.&.O.O.O.O.O.O.O.O.O.O.&.&.< < 1 1 1 ",
"&.&.< < < < O.O.O.O.O.O.O.O.O.O.O.O.O.O.O.| / w Z n.D u           .       f w w O.< < < < &.&.O.O.O.O.O.O.O.O.O.O.O.O.< < < < < ",
"&.&.< < < < O.O.O.O.O.O.O.O.O.O.O.O.O.O.O. .w w F v.~ y           X       d I w O.< < < < &.&.O.O.O.O.O.O.O.O.O.O.O.O.< < < < < ",
"&.&.1 1 < < < < O.O.O.O.O.O.O.O.O.O.O.O.O.U w n Z F ~ y     ~.    o   ~.  g U w O.< < &.&.< < 1 1 O.O.O.O.O.O.O.O.< < < < &.&.O.",
"&.&.1 1 < < < < O.O.O.O.O.O.O.O.O.O.O.O.@.K w w 0 Z ~ y           .       g P w O.< < &.&.< < 1 1 O.O.O.O.O.O.O.O.< < < < &.&.O.",
"&.&.< < &.&.< < O.O.O.O.O.O.O.O.O.O.O.O.&.T d w w ~ ~ y #         . O     d w w R < < &.&.< < < < O.O.O.O.O.O.O.O.< < &.&.O.O.O.",
"&.&.< < &.&.< < O.O.O.O.O.O.O.O.O.O.O.O.O.0.$.t w w ~ N h               + - w -.R < < &.&.< < < < O.O.O.O.O.O.O.O.< < &.&.O.O.O.",
"1 1 < < 2 O.< < O.O.O.O.O.O.O.O.O.O.O.O.1 O.H.5.,.w w ! N 8             & w w +.2 &.&.O.O.&.&.< < O.O.O.O.O.O.O.O.< < O.O.O.O.O.",
"1 1 < < O.O.< < O.O.O.O.O.O.O.O.O.O.O.O.1 1 2 *.Q.X.w l ! b 7 @     @ 6 z w <.+.< &.&.O.O.&.&.< < O.O.O.O.O.O.O.O.< < O.O.O.O.O.",
"< < < < O.O.< < 1 1 1 1 O.O.O.O.O.O.O.O.< < < < K.W.w 3 r v N e 5 3 q r ( w L.=.&.O.O.O.O.O.O.< < O.O.O.O.O.O.1 1 < < 1 1 O.O.O.",
"< < < < O.O.< < 1 1 1 1 O.O.O.O.O.O.O.O.< < < < P.F.w n ^ A F ~ ~ ~ B D D w 7.=.&.2 O.O.O.O.O.< < O.O.O.O.O.O.1 1 < < 1 1 O.O.O.",
"< < &.&.O.O.O.O.< < < < 1 1 1 1 1 1 1 1 < < O.2.G.w _ F y.f.f.m.m.N.n.n.` w w 3.O.O.O.O.O.O.O.< < 1 1 O.O.1 1 < < 1 1 O.O.O.O.&.",
"< < &.&.O.O.O.O.< < < < 1 1 1 1 1 1 1 1 < < O.$.w w M.A.C.Z.Z.h.a.b.B.A.m.' w W #.O.O.O.O.O.O.< < 1 1 O.O.1 1 < < 1 1 O.O.O.O.&.",
"< < O.O.O.O.O.O.&.&.&.&.< < < < < < < < < < O.;.w D d.h.h.g.z.z.S.V.a.a.e.^ w [ *.O.O.O.O.O.O.< < < < 1 1 < < 1 1 1 1 1 1 O.O.&.",
"< < O.O.O.O.O.O.&.&.&.&.< < < < < < < < < < O.>.w M.C.j.c.c.z.l.z.z.s.V.u.m.w w 6.O.O.O.O.O.O.< < < < 1 1 < < 1 1 1 1 < 1 O.O.&.",
"< < 2 2 O.O.O.O.O.O.O.O.&.&.< < O.O.O.O.O.O.O...w m.h.j.c.c.x.x.x.s.s.s.h.m.` w 6.O.O.O.O.O.O.< < < < < < O.O.< < < < < < 1 1 1 ",
"< < 2 2 O.O.O.O.O.O.O.O.&.&.< < O.O.O.O.O.O.O.h w d.h.j.j.c.z.x.p.i.s.V.h.m.` w 1.O.O.O.O.O.O.< < < < < < O.O.< < < < < < 1 1 1 ",
"< < < < O.O.O.O.O.O.O.O.O.O.< < 1 1 O.O.O.O.O.j w C.Z.D.c.c.g.z.i.r.j.Z.a.d.M.w *.R O.O.O.1 1 < < &.&.< < < < &.&.&.&.&.&.< < < ",
"< < < < O.O.O.O.O.O.O.O.O.O.< < 1 1 O.O.O.O.O.j w m.B.j.j.j.j.j.u.e.B.h.h.B.n.w w R O.O.O.1 1 < < &.&.< < < < &.&.&.&.&.&.< < < ",
"&.&.< < O.O.O.O.O.O.O.O.O.O.< < < < 1 1 1 1 1 w w m.m.B.V.V.a.e.C V d.d.k.C.S M w 1 1 1 1 < < < < O.O.&.&.< < O.O.O.O.O.O.&.&.< ",
"&.&.< < O.O.O.O.O.O.O.O.O.O.< < < < 1 1 1 1 w w D m.f.a.V.h.u.C p i F d.f.f.S M w 1 1 1 1 < < < < O.O.&.&.< < O.O.O.O.O.O.&.&.< ",
"&.&.< < 1 1 O.O.O.O.O.O.O.O.O.O.1 1 < < < > w B A y.u.u.u.u.y.w w 9 v F t.d.H D w < < < < &.&.&.&.O.O.O.O.< < O.O.O.O.O.O.O.O.&.",
"&.&.< < 1 1 O.O.O.O.O.O.O.O.O.O.1 1 < < < : w ( Z y.t.y.y.S v w w w q v A A D w w < < < < &.&.&.&.O.O.O.O.< < O.O.O.O.O.O.O.O.&.",
"O.O.&.&.< < 1 1 1 1 O.O.O.O.1 1 < < &.&.&.} w w c S S S H M e w   w w l B M m w < &.&.&.&.O.O.O.O.O.O.O.O.< < O.O.O.O.O.O.O.O.O.",
"O.O.&.&.< < 1 1 1 1 O.O.O.O.1 1 < < &.&.&.*.$.w N B v M B j w w       w x j w w < &.&.&.&.O.O.O.O.O.O.O.O.< < O.O.O.O.O.O.O.O.O.",
"O.O.O.O.&.&.< < < < 1 1 1 1 < < < < O.O.O.O.4.w w w w w k w w J Y ,     w w w < < &.&.O.O.O.O.O.O.O.O.O.O.< < < < < < O.O.O.O.O.",
"O.O.O.O.&.&.< < < < 1 1 1 1 < < < < O.O.O.O.O.0.= Q ^.w w     I.w.0.>   *.&.&.< < &.&.O.O.O.O.O.O.O.O.O.O.< < < < < < O.O.O.O.O.",
"O.O.O.O.O.O.&.&.< < < < < < &.&.< < < < O.O.O.%.%.P.R.E.!.T.  q.O.O.O.  O.1 1 < < O.O.O.O.O.O.O.O.O.O.1 1 < < &.&.&.&.< < O.O.O.",
"O.O.O.O.O.O.&.&.< < < < < < &.&.< < < < O.O.O.O.O.O.O.O.U.J.  *.O.O.    O.1 1 < < O.O.O.O.O.O.O.O.O.O.1 1 < < &.&.&.&.< < O.O.O.",
"O.O.O.O.O.O.< < &.&.&.&.&.&.O.O.&.&.< < 1 1 1 1 O.O.O.O.Y.9.  O.O.O.O.1 1 < < < < O.O.O.O.O.O.O.O.1 1 < < < < &.&.O.O.&.&.< < O.",
"O.O.O.O.O.O.< < &.&.&.&.&.&.O.O.&.&.< < 1 1 1 1 O.O.O.O.8.    O.O.O.O.1 1 < < < < O.O.O.O.O.O.O.O.1 1 < < < < &.&.O.O.&.&.< < O.",
"O.O.O.O.O.O.< < O.O.O.O.O.O.O.O.O.O.O.O.< < < < 1 1 1 1 1 1 1 1 1 1 1 < < < < O.O.O.O.O.O.O.O.1 1 < < < < &.&.O.O.O.O.O.O.&.&.< ",
"O.O.O.2 O.O.< < O.O.O.O.O.O.O.O.O.O.O.O.< < < < 1 1 1 1 1 1 1 1 1 1 1 < < < < O.O.O.O.O.O.O.O.1 1 < < < < &.&.O.O.O.O.O.O.&.&.< ",
"< < < < < < < < < < 1 1 O.O.O.O.O.O.O.O.O.O.< < < < < < < < < < < < < < < O.O.O.O.O.O.O.O.1 1 < < < < &.&.O.O.O.O.O.O.1 1 < < &.",
"< < < < < < < < < < 1 1 O.O.O.O.O.O.O.O.O.O.< < < < < < < < < < < < < < < O.O.O.O.O.O.O.O.1 1 < < < < &.&.O.O.O.O.O.O.1 1 < < &.",
"&.&.&.&.&.&.&.&.< < < < 1 1 1 1 O.O.O.O.1 1 1 1 < < < < < < &.&.&.< < < < 1 1 1 1 1 1 1 1 < < < < &.&.O.O.O.O.O.O.1 1 < < &.&.O.",
"&.&.&.&.&.&.&.&.< < < < 1 1 1 1 O.O.O.O.1 1 1 1 < < < < < < &.&.&.< < < < 1 1 1 1 1 1 1 1 < < < < &.&.O.O.O.O.O.O.1 1 < < &.&.O.",
"O.O.O.O.O.O.O.O.&.&.< < < < < < 1 1 1 1 < < < < < < < < &.&.O.O.O.&.&.< < < < < < < < < < < < &.&.O.O.O.O.O.O.1 1 < < &.&.O.O.O.",
"O.O.O.O.O.O.O.O.&.&.< < < < < < 1 1 1 1 < < < < < < < < &.&.O.O.O.&.&.< < < < < < < < < < < < &.&.O.O.O.O.O.O.1 1 < < &.&.O.O.O.",
"O.O.O.O.O.O.O.O.O.O.&.&.&.&.< < < < < < < < O.O.2 2 < < O.O.O.O.O.O.O.O.O.< < < < O.O.O.O.O.O.O.O.O.O.O.O.1 1 < < &.&.O.O.O.O.O.",
"O.O.O.O.O.O.O.O.O.O.&.&.&.&.< < < < < < < < O.O.O.2 < < O.O.O.O.O.O.O.O.O.< < < < O.O.O.O.O.O.O.O.O.O.O.O.1 1 < < &.&.O.O.O.O.O.",
"O.O.O.O.O.O.< < O.O.O.O.O.O.O.O.O.O.O.O.O.O.O.O.O.O.< < O.O.O.O.O.O.O.O.O.O.O.< < < < O.O.O.O.O.O.O.O.O.O.< < O.O.O.O.O.O.O.O.O.",
"O.O.O.O.O.O.< < O.O.O.O.O.O.O.O.O.O.O.O.O.O.O.O.O.O.< < O.O.O.O.O.O.O.O.O.O.O.< < < < O.O.O.O.O.O.O.O.O.O.< < O.O.O.O.O.O.O.O.O."
};
