/* XPM */
static char *a7127bdddd154bcbcad48238b0a7e8bfbf7ysaz3zzQs3NuM[] = {
/* columns rows colors chars-per-pixel */
"64 64 5 1 ",
"  c black",
". c #313131",
"X c #353535",
"o c gray25",
"O c gray34",
/* pixels */
"ooooooooooXX..XXXXXXXXo  oooXX .... ...........XXooooooooooooooo",
"ooooooooooXX..   XXXXXo  oooXX .... ...........X ooooooooooooooo",
"ooooooooXX.....  .....  XXXX.. ..OO OOOOOOOOOOO  XXooooooooooooo",
"ooooooooXX......  ....  XXXX.. ..OO OOOOOOOOOO  .XXooooooooooooo",
"ooooo  oXX..OOOO  OOO   ...... OOoo ooooooooo  OO..XXooooooooooo",
"oooooo  X    OO   OOO   .....  OOoo ooooo     oOO..XXooooooooooo",
"XXXXXX   .OOooo  oooo  OOOXX. XXXXX XXXo  o oooooOO.. XooooooXXX",
"XXXXXX  ..OOoo  oooo   OOOXX .XXXX  XX  o  ooooooOO.  XooooooXXX",
"......   .XXXX  XXoo   oXX.. ..... ... X  ooooooooo .XXXXXXXX...",
"......   .XXXX  XXoo   oXX.. .... ..  .   oooooooo ..XXXXXXXX...",
"OOOOOOX   ....  ..XX   X  . OOOO OOO .   XXoooooo  ............O",
"OOOOOOX   ....  ..XX  XX.  .OOO  OO O.   XXooooo  o............O",
"ooooXX.   ..OO  ....  ..O   ooo ooo oO   ..  XXX XX..OOOOOOOOOOo",
"ooooXX..  ..OOO   ..  ..O    oo oo ooO   ..X XXX XX..OOOOOOOOOOo",
"ooXX....  OOooo OO..   Ooo   o ooo oo   O...  .  ..... XXooooooo",
"ooXX....   Ooo   O..   Oooo    ooo o o  O....    ....  XXooooooo",
"XX....OO   ooo    OO.  .oooo      oo    o..OOO     OO O..XXooooo",
"XX....OOo  oooo    O..  oooooo    o   o o..OO  OOOOO  O..XXooooo",
"....OOooo   ooo o   OO   XXXXXoo     o oo..   ooooo   oOO..XXooo",
".... Ooooo   ooo    OO.  XXXXXooo   o ooo    oooooo  ooOO..XXooo",
"OO..  ooooo   oo     o.    ...XXXo         ..OOooo   ooooOO..XXX",
"OO..O ooooo  o o  o  o..    ..XXXo       ....OOoo    ooooOO..XXX",
"OO... o  oooo         ..O  O.....X     oo....OO      oooooo.....",
"OO... oo  ooooooo      .OO   ....X    ooo....    o oooooooo.....",
"OOXX.  .   ooooooooooo.              oooo..     X  oooooo....OOo",
"OOXX.. .o  ooooooooooo              Xoooo        oooooooo....OOo",
"OO..OO.     ooooooooo               .XX      . ..oooooooo..OOooo",
"OO..OO..oo   ooooooo  ..           ..X        ...oooooooo..OOooo",
"XX..oo..oo    oooo   X..           ..   .  ooOO..oooooooo..ooooo",
"XX..oo..oooo        XX..           .  .  OOooOO..oooooooo..ooooo",
"....oo..XXXXo      o...            .   OOoooooo..ooooooXX..XXooo",
"....oo..XXXXooo  ooo...          o .  .OOoooooo..ooooooXX..XXooo",
"..OOoooo....XXXXXXXX..o          oo   Ooooooooo..XXooXX..XXooooO",
"..OOoooo....XXXXXXXX..           oo  OOoooooooo..XXooXX..XXooooO",
"..ooooooOOOO..........           XX. OOoooooooo....XX..XXXXXXooO",
"..ooooooOOOO.........             X.  Ooooooooo....XX..XXXXXXooO",
"..ooooooooooOO..ooooo              .. Ooooooooo......oo......XXX",
"..ooooooooooOO..oooo              ..   oooooooo......oo......XXX",
"....oooooooooo..XXo              ..O o ooooooXX..OO....OOOOOO...",
"....oooooooooo..XXo                O oo oooooXX..OO....OOOOOO...",
"OO..oooooooooo....X                o oo XXXXX....ooOO..ooooooOO.",
"OO..oooooooooo....                Oo oo XXXXX....ooOO..ooooooOO.",
"OO..XXooooooooooXX               XXX XX .....OOOOoooo..ooooooooO",
"OO..XXooooooooooX                XXXX X. ....OOOOoooo..ooooooooO",
"ooOO..XXXXooooXX.                ...  .. OOOOoooooooo..ooooooooo",
"ooOO..XXXXooooXX                 ... ... OOOOoooooooo..ooooooooo",
"ooooOO....XXXX..                  OO OO.  Ooooooooooo......ooooo",
"ooooOO....XXXX. .                 OO OO.. Ooooooooooo......ooooo",
"ooooooOO......O                   oo XX..  ooooooooXX..OOOO..ooo",
"ooooooOO......OO                 ooo XX..o ooooooooXX..OOOO..ooo",
"oooooo..OOOOOOoo                 ooX ....o  oooooXX....OOooOO..o",
"oooooo..OOOOOOoo                oooX ....oo  ooooXX....OOooOO..o",
"oooooo..ooooooo                              ooXX....OOooooooOO.",
"oooooo..oooooooooooo....XXXXXXXXXXX....ooooooooXX....OOooooooOO.",
"..........XXoooooooooo...............ooooooooXX....OOooooooXX..O",
"..........XXoooooooooo...............ooooooooXX....OOooooooXX..O",
"OOOOOOOO....XXXXooooXXXX......OOO....XXXXXXXX....OOooooooXX..OOo",
"OOOOOOOO....XXXXooooXXXX......OOO....XXXXXXXX....OOooooooXX..OOo",
"ooooooooOO......XXXX........OOoooOO............OOooooooXX..OOooo",
"ooooooooOO......XXXX........OOoooOO............OOooooooXX..OOooo",
"ooooooooooOOOO........oooo..ooooooooo....ooooooooooooXX..OOooooo",
"ooooooooooOOOO........oooo..ooooooooo....ooooooooooooXX..OOooooo",
"oooooo..oooooooooooooooooo..ooooooooooo....oooooooooo..ooooooooo",
"oooooo..oooooooooooooooooo..ooooooooooo....oooooooooo..ooooooooo"
};
